<svg width="344" height="382" viewBox="0 0 344 382" fill="none" xmlns="http://www.w3.org/2000/svg">
<g id="indian-woman 1">
<g id="layer1">
<g id="g10101">
<g id="path9105" filter="url(#filter0_f)">
<path d="M168.481 36.8432C152.172 36.8426 136.023 40.2741 120.956 46.9419C105.889 53.6097 92.1981 63.3831 80.666 75.7042C69.1339 88.0252 59.986 102.653 53.7449 118.751C47.5037 134.849 44.2914 152.104 44.2914 169.529C44.2992 189.658 48.5935 209.522 56.8491 227.616C65.1048 245.71 77.1053 261.56 91.9421 273.966C91.7123 273.952 91.4882 273.947 91.2586 273.945C91.1579 273.944 91.0604 273.945 90.961 273.945C90.7935 273.945 90.6312 273.956 90.4704 273.966C90.2928 273.979 90.1281 274.003 89.9633 274.03C89.8691 274.046 89.771 274.056 89.6822 274.076C89.4277 274.132 89.1935 274.205 88.9987 274.308C88.805 274.41 88.626 274.555 88.4586 274.72C88.4501 274.732 88.4445 274.739 88.4366 274.747C87.9527 275.236 87.593 275.92 87.3204 276.581C87.2649 276.714 87.2305 276.818 87.1826 276.946C87.0466 277.315 86.944 277.606 86.874 277.858C86.8201 278.043 86.802 278.094 86.7748 278.202C86.772 278.214 86.7635 278.241 86.7607 278.25C86.7341 278.25 86.4868 278.192 86.0606 278.117C85.8018 278.072 85.4425 278.033 85.085 277.984C84.8385 277.952 84.6493 277.914 84.3768 277.888C84.0599 277.858 83.7362 277.834 83.4066 277.821C83.4024 277.821 83.3982 277.821 83.3925 277.821C82.7806 277.8 82.1795 277.833 81.6508 277.922C81.5991 277.934 81.5355 277.934 81.4854 277.946C81.4826 277.946 81.4798 277.945 81.477 277.946C81.1999 278.005 80.9488 278.087 80.7384 278.198C80.549 278.298 80.3772 278.441 80.212 278.601C80.1753 278.638 80.1427 278.678 80.1072 278.716C79.9687 278.864 79.8368 279.026 79.7159 279.202C79.7018 279.222 79.6881 279.241 79.6745 279.262C79.4427 279.611 79.26 279.986 79.093 280.369C79.018 280.541 78.9547 280.688 78.8919 280.853C78.7554 281.214 78.6502 281.521 78.5722 281.791C78.5374 281.908 78.5143 281.969 78.4895 282.061C78.3789 282.041 78.2466 282.029 78.1147 282.006C77.7636 281.948 77.3782 281.893 76.9213 281.841C76.5519 281.799 76.1987 281.766 75.8024 281.745C75.7082 281.745 75.6213 281.73 75.5268 281.726C75.1867 281.713 74.8517 281.714 74.5236 281.738C74.4702 281.738 74.4194 281.738 74.3666 281.75C74.0896 281.768 73.8275 281.801 73.5783 281.848C73.5075 281.861 73.4339 281.872 73.3661 281.887C73.2939 281.905 73.2252 281.924 73.1567 281.944C72.9814 281.996 72.8165 282.056 72.6716 282.13C72.6646 282.13 72.6541 282.13 72.6468 282.142C72.6458 282.142 72.6454 282.142 72.644 282.142C72.4279 282.257 72.2257 282.415 72.0377 282.605C71.8497 282.795 71.6742 283.014 71.514 283.254C71.5136 283.254 71.5144 283.254 71.514 283.254C71.1934 283.733 70.9288 284.285 70.7176 284.81C70.5657 285.188 70.4751 285.497 70.3786 285.807C70.3406 285.929 70.273 286.096 70.2435 286.199C70.2434 286.2 70.2437 286.199 70.2435 286.199C70.1398 286.563 70.0864 286.798 70.0864 286.798C70.0864 286.798 73.2919 292.426 76.585 297.286C76.5856 297.287 76.5878 297.286 76.5878 297.286C77.4704 298.589 78.3463 299.789 79.1812 300.858C79.3841 301.117 79.5974 301.414 79.793 301.651C79.7934 301.651 79.7926 301.651 79.793 301.651C83.491 306.126 90.9915 313.052 94.5099 316.236C95.6828 317.297 96.4115 317.941 96.4115 317.941H96.4144C96.4186 317.942 97.5917 318.201 98.9967 318.338C99.3486 318.372 99.7167 318.4 100.083 318.413C100.814 318.439 101.545 318.413 102.155 318.282C102.46 318.218 102.735 318.127 102.965 318.005C103.182 317.891 103.383 317.732 103.572 317.542C103.949 317.162 104.27 316.657 104.536 316.128C104.935 315.335 105.212 314.491 105.368 313.943C105.369 313.943 105.368 313.942 105.368 313.943C105.473 313.577 105.523 313.344 105.523 313.344C105.523 313.344 104.678 312.594 103.409 311.444C103.413 311.445 103.419 311.444 103.423 311.444C103.427 311.445 103.436 311.444 103.44 311.444C103.821 311.511 104.333 311.582 104.889 311.643C105.262 311.684 105.625 311.718 106.022 311.735C106.047 311.736 106.069 311.747 106.094 311.747C106.098 311.747 106.102 311.746 106.108 311.747C106.411 311.758 106.71 311.758 107.003 311.747C107.087 311.747 107.164 311.735 107.246 311.728C107.454 311.713 107.651 311.688 107.841 311.655C107.931 311.64 108.021 311.625 108.106 311.605C108.353 311.546 108.585 311.476 108.776 311.375C110.377 310.53 111.139 307.072 111.14 307.065C111.14 307.065 110.708 306.679 110.581 306.566C110.694 306.589 110.834 306.617 111.179 306.676C111.513 306.736 111.922 306.788 112.435 306.848C112.558 306.862 112.647 306.877 112.774 306.889C113.679 306.977 114.665 307.006 115.475 306.843C115.5 306.843 115.528 306.832 115.552 306.832C115.821 306.773 116.068 306.695 116.275 306.586C117.834 305.763 118.573 302.391 118.573 302.391C118.573 302.391 118.072 301.938 117.862 301.751C117.931 301.709 118.035 301.643 118.105 301.6C119.136 300.966 120.002 300.424 121.395 299.555C121.85 299.271 122.231 299.037 122.724 298.728C124.515 297.603 126.461 296.365 128.566 295.009C128.578 295.013 128.59 295.017 128.602 295.021C132.277 296.356 136.008 297.507 139.783 298.469C140.388 298.62 140.995 298.766 141.602 298.907C144.776 299.667 147.978 300.294 151.198 300.787C152.474 300.973 153.752 301.138 155.032 301.282C157.931 301.644 160.841 301.897 163.757 302.041C165.331 302.132 166.905 302.192 168.481 302.219C170.391 302.195 172.301 302.123 174.208 302.004C176.54 302.299 178.938 302.573 181.384 302.834C181.781 302.876 182.186 302.916 182.586 302.958C184.671 303.174 186.798 303.379 188.969 303.572C189.512 303.62 190.057 303.67 190.606 303.716C192.619 303.889 194.674 304.05 196.763 304.205C197.469 304.257 198.164 304.313 198.879 304.363C201.567 304.552 204.302 304.732 207.117 304.895C207.512 304.917 207.898 304.917 208.288 304.924C208.543 304.924 208.802 304.945 209.054 304.945C209.432 304.945 209.803 304.923 210.176 304.909C210.451 304.897 210.73 304.895 211.003 304.877C211.382 304.853 211.755 304.814 212.13 304.776C212.376 304.752 212.624 304.73 212.869 304.701C213.27 304.652 213.668 304.592 214.065 304.529C214.276 304.495 214.489 304.463 214.699 304.426C215.111 304.353 215.518 304.272 215.925 304.185C216.112 304.145 216.299 304.107 216.484 304.064C216.909 303.966 217.33 303.86 217.749 303.75C217.901 303.71 218.053 303.67 218.204 303.628C218.671 303.498 219.135 303.36 219.596 303.215C219.678 303.19 219.759 303.164 219.841 303.138C220.331 302.981 220.816 302.817 221.299 302.645C221.327 302.633 221.356 302.628 221.384 302.617C221.4 302.666 221.425 302.728 221.442 302.78C221.601 303.256 221.793 303.765 222.076 304.293C222.12 304.375 222.167 304.449 222.214 304.529C222.326 304.719 222.446 304.892 222.575 305.058C222.65 305.155 222.717 305.255 222.798 305.34C222.83 305.373 222.863 305.404 222.895 305.434C223.051 305.584 223.215 305.72 223.394 305.815C223.597 305.922 223.84 305.999 224.105 306.058C224.158 306.07 224.218 306.073 224.273 306.083C225.058 306.227 225.989 306.204 226.855 306.121C227.029 306.105 227.153 306.086 227.318 306.066C227.795 306.009 228.172 305.962 228.487 305.906C228.83 305.847 228.968 305.82 229.082 305.795C228.955 305.908 228.525 306.295 228.525 306.295C228.526 306.295 228.573 306.511 228.669 306.848C228.862 307.523 229.252 308.684 229.845 309.571C230.142 310.015 230.489 310.391 230.89 310.603C230.906 310.614 230.929 310.614 230.945 310.621C231.128 310.712 231.34 310.781 231.571 310.835C231.649 310.852 231.733 310.866 231.816 310.881C232.008 310.915 232.207 310.938 232.417 310.953C232.502 310.965 232.583 310.967 232.67 310.972C232.961 310.985 233.257 310.99 233.558 310.984C233.995 310.969 234.395 310.926 234.803 310.881C235.356 310.82 235.866 310.75 236.242 310.684C236.25 310.684 236.248 310.683 236.256 310.684C236.2 310.734 236.101 310.829 236.047 310.878C234.987 311.836 234.142 312.584 234.142 312.584C234.142 312.584 234.464 314.047 235.129 315.367C235.395 315.895 235.717 316.4 236.094 316.779C236.282 316.969 236.483 317.128 236.7 317.242C236.815 317.303 236.942 317.355 237.077 317.401H237.08C237.215 317.446 237.358 317.485 237.51 317.518H237.513C238.428 317.712 239.614 317.678 240.669 317.576C241.371 317.507 242.018 317.408 242.488 317.326H242.49C242.958 317.243 243.251 317.179 243.251 317.179H243.254C243.254 317.179 243.985 316.532 245.155 315.473H245.158C248.677 312.29 256.175 305.366 259.872 300.891C260.326 300.342 260.799 299.725 261.281 299.068C262.656 297.205 264.069 295.033 265.379 292.959C271.566 296.499 275.856 303.974 278.916 312.19C279.162 312.85 279.386 313.52 279.616 314.187C279.933 315.106 280.248 316.025 280.537 316.952C280.706 317.496 280.862 318.038 281.022 318.582C281.298 319.52 281.573 320.458 281.824 321.39C281.965 321.918 282.095 322.439 282.229 322.963C282.461 323.871 282.694 324.779 282.904 325.668C283.042 326.252 283.166 326.819 283.295 327.392C283.466 328.148 283.638 328.905 283.794 329.636C284.143 331.274 284.414 332.702 284.698 334.171C285.132 336.406 285.517 338.309 285.839 339.971C286.003 340.817 286.194 341.859 286.338 342.513C286.412 342.851 286.48 343.086 286.55 343.366C286.624 343.662 286.703 344.016 286.773 344.244C286.802 344.336 286.828 344.4 286.856 344.48C286.894 344.591 286.934 344.714 286.972 344.801C286.998 344.862 287.023 344.894 287.049 344.943C287.088 345.019 287.126 345.108 287.165 345.157C287.371 345.145 287.573 345.11 287.771 345.053C287.842 345.033 287.913 345.004 287.983 344.978C288.115 344.929 288.244 344.869 288.372 344.799C288.443 344.761 288.514 344.721 288.584 344.676C288.732 344.579 288.877 344.467 289.019 344.343C289.057 344.31 289.096 344.286 289.132 344.252C289.317 344.08 289.497 343.882 289.673 343.665C289.702 343.628 289.729 343.587 289.758 343.55C289.886 343.384 290.01 343.199 290.133 343.009C290.36 342.657 290.582 342.275 290.791 341.844C290.863 341.697 290.929 341.53 290.998 341.374C291.138 341.06 291.275 340.731 291.406 340.381C291.495 340.146 291.581 339.912 291.665 339.662C291.818 339.205 291.965 338.729 292.103 338.224C292.206 337.852 292.301 337.456 292.395 337.06C292.434 336.898 292.471 336.733 292.509 336.567C293.195 333.512 293.651 329.79 293.848 325.606C293.852 325.623 293.855 325.633 293.859 325.65C294.038 326.444 294.21 327.067 294.375 327.275C295.266 327.241 296.051 326.753 296.725 325.879C296.86 325.704 296.991 325.516 297.117 325.311C299.135 322.026 300.016 314.899 299.614 306.019C299.563 304.909 299.492 303.773 299.401 302.612C298.677 293.327 296.652 282.546 293.184 272.361C293.084 272.067 292.969 271.78 292.867 271.487C292.082 269.243 291.238 267.022 290.31 264.864C289.785 263.644 289.238 262.443 288.667 261.263C288.096 260.082 287.499 258.921 286.881 257.787C286.263 256.653 285.621 255.546 284.955 254.468C284.289 253.389 283.599 252.34 282.885 251.325C282.171 250.309 281.432 249.329 280.669 248.386C278.762 246.026 276.703 243.904 274.485 242.081C273.598 241.352 272.686 240.67 271.748 240.041H271.745C270.338 239.097 268.875 238.27 267.352 237.574C265.597 236.772 263.927 236.167 262.323 235.726C264.409 233.07 266.409 230.293 268.314 227.384C268.363 227.31 268.411 227.236 268.46 227.162C269.089 226.197 269.713 225.223 270.32 224.23C277.567 207.111 281.33 188.545 281.358 169.757C281.358 169.513 281.348 169.269 281.347 169.024C281.34 167.947 281.323 166.871 281.292 165.796C281.29 165.742 281.285 165.689 281.283 165.636C281.163 161.669 280.876 157.716 280.426 153.788C280.438 153.441 280.449 153.094 280.459 152.747C280.459 122.055 269.048 92.6208 248.736 70.9185C228.424 49.2162 200.875 37.024 172.149 37.0239C172.053 37.0277 171.956 37.0316 171.86 37.0356C170.735 36.9551 169.608 36.8909 168.481 36.8432V36.8432ZM69.3073 116.691C69.2356 116.964 69.1649 117.238 69.0951 117.512C69.1078 117.389 69.1157 117.261 69.1281 117.138C69.1876 116.989 69.2473 116.84 69.3073 116.691H69.3073Z" fill="black"/>
</g>
<g id="g63584">
<g id="path43095" opacity="0.1" filter="url(#filter1_f)">
<path d="M169.125 32.3231C152.816 32.3228 136.667 35.7545 121.6 42.4224C106.533 49.0903 92.843 58.8637 81.3111 71.1846C69.7792 83.5056 60.6315 98.1328 54.3905 114.231C48.1494 130.329 44.9371 147.583 44.937 165.008C44.9446 185.138 49.2389 205.002 57.4947 223.097C65.7504 241.191 77.7513 257.041 92.5884 269.447C91.4874 269.38 90.339 269.422 89.6422 269.79C88.2624 270.518 87.5578 273.116 87.4057 273.734C87.2985 273.711 83.068 272.792 81.3843 273.681C80.1043 274.356 79.3813 276.627 79.1335 277.545C77.771 277.301 74.7091 276.865 73.2913 277.613C71.5575 278.528 70.7322 282.276 70.7322 282.276C70.7322 282.276 76.4323 292.284 80.4381 297.132C85.3682 303.1 97.0579 313.426 97.0579 313.426C97.0579 313.426 101.766 314.462 103.61 313.488C105.343 312.573 106.169 308.826 106.169 308.826C106.169 308.826 105.323 308.076 104.054 306.926C105.347 307.154 108.132 307.532 109.42 306.852C111.023 306.006 111.785 302.541 111.785 302.541C111.785 302.541 111.354 302.153 111.226 302.04C111.767 302.153 115.38 302.872 116.918 302.061C118.477 301.237 119.219 297.866 119.219 297.866C119.219 297.866 118.715 297.412 118.505 297.225C121.1 295.633 124.577 293.468 129.211 290.484C142.057 295.203 155.541 297.639 169.125 297.693C171.035 297.668 172.945 297.595 174.852 297.475C184.754 298.73 195.648 299.669 207.762 300.367C212.923 300.665 217.611 299.674 222.03 298.09C222.369 299.151 223.01 300.746 224.037 301.289C225.575 302.1 229.188 301.384 229.729 301.271C229.602 301.384 229.17 301.772 229.17 301.772C229.17 301.772 229.932 305.233 231.536 306.08C232.825 306.761 235.614 306.381 236.905 306.154C235.634 307.306 234.786 308.056 234.786 308.056C234.786 308.056 235.612 311.801 237.345 312.716C239.19 313.69 243.897 312.654 243.897 312.654C243.897 312.654 255.587 302.331 260.517 296.363C262.25 294.266 264.254 291.231 266.022 288.43C283.133 298.221 285.789 338.068 287.81 340.628C291.513 340.485 293.958 332.421 294.491 321.076C294.674 321.893 294.851 322.534 295.018 322.746C306.424 322.305 300.477 247.885 267.997 233.047C266.23 232.24 264.551 231.634 262.936 231.193C265.772 227.584 268.47 223.779 270.965 219.699C278.211 202.581 281.973 184.014 282 165.226C281.995 159.938 281.657 154.672 281.065 149.445C281.08 149.036 281.093 148.626 281.104 148.217C281.104 117.525 269.693 88.0903 249.381 66.3879C229.069 44.6855 201.52 32.4932 172.795 32.4931C172.698 32.4971 172.601 32.5011 172.504 32.5054C171.379 32.4283 170.252 32.3677 169.125 32.3235V32.3231ZM69.9509 112.171C69.8794 112.445 69.8089 112.72 69.7394 112.994C69.7522 112.871 69.7592 112.742 69.7717 112.619C69.8312 112.469 69.891 112.32 69.951 112.171H69.9509Z" fill="black"/>
</g>
<path id="path42672" d="M266.041 253.267C238.124 239.315 232.511 277.269 172.693 277.269C112.874 277.271 62.5263 227.773 62.5262 163.859C62.5525 151.61 64.3986 139.444 67.9957 127.813C61.1994 144.483 57.6822 162.467 57.6625 180.65C57.6901 199.438 61.4516 218.005 68.6982 235.124C99.4271 285.375 126.952 300.265 207.116 304.889C229.353 306.172 242.897 283.637 263.369 291.952C282.294 299.639 285.067 342.49 287.165 345.147C298.57 344.707 298.174 269.326 266.041 253.267V253.267Z" fill="#DC661E"/>
<path id="path42670" d="M271.021 116.91C274.618 128.54 276.465 140.707 276.491 152.955C276.491 187.74 262.109 218.915 239.373 240.129C244.216 239.095 249.366 239.537 255.556 242.365C255.825 242.488 256.086 242.625 256.351 242.756C261.447 237.202 266.138 231.058 270.319 224.22C277.565 207.102 281.327 188.535 281.354 169.747C281.335 151.564 277.818 133.58 271.021 116.91V116.91Z" fill="#F78320"/>
<path id="ellipse42656" d="M267.352 237.566C238.042 224.176 231.968 263.881 172.15 263.881C112.331 263.883 68.4715 213.614 68.4714 149.7C68.4977 137.451 67.5633 117.575 71.1603 105.945C64.364 122.614 58.9931 146.767 58.9734 164.949C59.001 183.737 62.7625 202.304 70.0091 219.423C100.738 269.674 158.209 283.629 212.518 285.306C233.871 285.965 250.233 254.614 270.704 262.93C289.63 270.617 292.276 324.608 294.374 327.266C305.78 326.825 299.832 252.404 267.352 237.566V237.566Z" fill="#D71A20"/>
<path id="ellipse42568" d="M168.48 36.8436C152.172 36.8433 136.023 40.275 120.956 46.9429C105.889 53.6108 92.1983 63.3842 80.6664 75.7052C69.1345 88.0261 59.9869 102.653 53.7458 118.752C47.5047 134.85 44.2924 152.104 44.2924 169.529C44.2924 186.953 47.5047 204.207 53.7458 220.306C59.9869 236.404 69.1345 251.031 80.6664 263.352C92.1983 275.673 105.889 285.446 120.956 292.114C136.023 298.782 152.172 302.214 168.48 302.213C171.351 302.211 174.221 302.103 177.085 301.889C145.266 300.224 115.262 285.558 93.2785 260.922C71.2949 236.287 59.0132 203.567 58.9731 169.529C58.9928 151.346 62.5099 133.362 69.3062 116.692C65.7092 128.322 63.8631 140.489 63.8368 152.737C63.8368 167.935 66.6384 182.983 72.0818 197.024C77.5251 211.064 85.5034 223.821 95.5613 234.567C105.619 245.313 117.56 253.838 130.701 259.653C143.842 265.468 157.926 268.461 172.15 268.461C200.876 268.461 228.425 256.268 248.737 234.566C269.049 212.864 280.46 183.429 280.46 152.737C280.46 122.045 269.049 92.6107 248.737 70.9083C228.425 49.2059 200.876 37.0136 172.15 37.0136C172.053 37.0175 171.957 37.0216 171.86 37.0258C170.734 36.9487 169.607 36.8881 168.48 36.8439V36.8436Z" fill="#BA131A"/>
<path id="path42564" d="M169.262 245.938C222.977 245.938 266.522 199.412 266.522 142.021C266.522 84.6287 222.977 38.1035 169.262 38.1035C115.547 38.1035 72.0027 84.6287 72.0027 142.021C72.0027 199.412 115.547 245.938 169.262 245.938Z" fill="url(#paint0_radial)"/>
<path id="path42905" d="M227.461 167.591C229.564 170.897 230.723 175.105 230.729 179.458C230.729 184.31 229.297 188.963 226.748 192.394C224.199 195.825 220.742 197.753 217.137 197.753C214.81 197.75 212.522 196.942 210.493 195.408C211.767 197.42 213.35 199.038 215.133 200.148C216.916 201.258 218.856 201.835 220.821 201.839C224.426 201.838 227.883 199.91 230.432 196.479C232.981 193.048 234.413 188.395 234.413 183.543C234.411 180.293 233.766 177.101 232.544 174.298C231.323 171.494 229.568 169.179 227.461 167.591V167.591Z" fill="url(#paint1_linear)" stroke="black" stroke-width="0.240648" stroke-linecap="round" stroke-linejoin="round"/>
<path id="path23626" d="M168.673 207.391C209.697 207.391 242.954 172.322 242.954 129.061C242.954 85.8008 209.697 50.7314 168.673 50.7314C127.649 50.7314 94.3925 85.8008 94.3925 129.061C94.3925 172.322 127.649 207.391 168.673 207.391Z" fill="url(#paint2_radial)" stroke="black" stroke-width="0.719369" stroke-linecap="round" stroke-linejoin="round"/>
<path id="path23628" fill-rule="evenodd" clip-rule="evenodd" d="M168.673 50.7311C158.918 50.7309 149.259 52.7569 140.246 56.6933C131.234 60.6298 123.045 66.3996 116.147 73.6733C109.25 80.947 103.778 89.5822 100.045 99.0858C96.3121 108.589 94.3909 118.775 94.391 129.062C94.4027 139.038 96.2214 148.919 99.7493 158.175C101.825 145.955 107.065 127.662 120.061 125.088C157.421 117.686 172.49 92.9241 172.49 92.9241L171.379 50.8742C170.478 50.8092 169.575 50.7615 168.673 50.7312V50.7311Z" fill="#290005" stroke="black" stroke-width="0.719369"/>
<path id="path23636" fill-rule="evenodd" clip-rule="evenodd" d="M169.781 50.7311C169.596 50.7403 169.411 50.7502 169.226 50.7608C169.944 50.7876 170.662 50.8254 171.38 50.8741L172.491 92.924C172.491 92.924 171.424 94.6474 169.226 97.2888C175.417 104.73 190.818 119.625 218.393 125.087C231.389 127.662 236.629 145.955 238.704 158.175C242.232 148.919 244.051 139.037 244.063 129.062C244.063 118.775 242.142 108.589 238.409 99.0856C234.676 89.582 229.204 80.9469 222.306 73.6732C215.409 66.3994 207.22 60.6297 198.208 56.6932C189.195 52.7568 179.536 50.7308 169.781 50.731V50.7311Z" fill="#290005" stroke="black" stroke-width="0.719369"/>
<path id="path23805" d="M127.836 135.692C127.781 137.47 142.764 137.511 146.187 141.416C151.669 148.041 156.12 149.395 158.803 146.255C160.956 143.735 154.323 141.062 151.063 139.577C144.136 136.421 127.815 133.928 127.836 135.692V135.692ZM124.879 144.329C124.214 144.49 126.751 144.525 128.815 148.644C132.313 155.624 146.64 159.5 152.395 157.087C156.68 154.774 155.665 157.423 155.061 158.202L160.14 150.978C151.973 155.455 144.059 155.329 136.456 150.581C129.382 146.164 125.734 144.122 124.879 144.329V144.329Z" fill="black"/>
<path id="path23813" d="M212.779 135.692C212.834 137.47 197.851 137.511 194.428 141.416C188.946 148.041 184.495 149.395 181.812 146.255C179.659 143.735 186.292 141.062 189.552 139.577C196.479 136.421 212.8 133.928 212.779 135.692V135.692ZM215.736 144.329C216.401 144.49 213.864 144.525 211.8 148.644C208.302 155.624 193.975 159.5 188.22 157.087C183.935 154.774 184.95 157.423 185.554 158.202L180.475 150.978C188.642 155.455 196.556 155.329 204.159 150.581C211.233 146.164 214.881 144.122 215.736 144.329V144.329Z" fill="black"/>
<path id="path23819" d="M170.854 127.979C173.158 127.979 175.025 125.908 175.025 123.353C175.025 120.798 173.158 118.727 170.854 118.727C168.551 118.727 166.683 120.798 166.683 123.353C166.683 125.908 168.551 127.979 170.854 127.979Z" fill="#E50000"/>
<path id="path23821" d="M168.674 50.7311C158.546 50.7406 148.528 52.9338 139.234 57.176C129.939 61.4181 121.566 67.6196 114.628 75.3993C113.453 79.4904 112.854 83.7416 112.85 88.0167C112.86 94.7606 114.35 101.41 117.203 107.443C120.056 113.476 124.195 118.728 129.294 122.786C159.917 113.562 172.491 92.9241 172.491 92.9241L171.38 50.8742C170.479 50.8092 169.576 50.7615 168.674 50.7312V50.7311Z" fill="url(#paint3_linear)"/>
<path id="ellipse23825" d="M172.48 50.8324C172.116 51.1588 171.758 51.4917 171.405 51.8312L172.491 92.924C172.491 92.924 171.424 94.6475 169.226 97.2888C175.201 104.47 189.789 118.571 215.587 124.458C220.866 121.866 225.566 118.123 229.379 113.476C233.192 108.829 236.032 103.383 237.712 97.4946C232.086 84.0461 222.985 72.5383 211.449 64.2866C199.914 56.035 186.41 51.3726 172.48 50.8324V50.8324Z" fill="url(#paint4_linear)"/>
<path id="path42918" d="M109.174 169.118C107.071 172.424 105.912 176.631 105.906 180.984C105.906 185.836 107.338 190.49 109.887 193.921C112.436 197.352 115.893 199.279 119.498 199.28C121.825 199.277 124.113 198.469 126.143 196.934C124.869 198.947 123.286 200.564 121.503 201.674C119.72 202.785 117.779 203.361 115.814 203.365C112.21 203.365 108.752 201.437 106.203 198.006C103.655 194.575 102.223 189.921 102.223 185.069C102.224 181.819 102.869 178.628 104.091 175.824C105.313 173.021 107.067 170.706 109.174 169.118V169.118Z" fill="url(#paint5_linear)" stroke="black" stroke-width="0.240648" stroke-linecap="round" stroke-linejoin="round"/>
<g id="hands">
<path id="path23841" fill-rule="evenodd" clip-rule="evenodd" d="M96.4431 272.858C96.4431 272.858 91.8991 287.132 95.7877 293.029C99.4632 298.604 115.449 302.843 115.449 302.843C115.449 302.843 143.566 285.98 155.428 275.584C160.376 271.247 165.987 266.823 168.208 261.137C173.778 246.878 168.569 231.142 167.881 216.16C167.584 209.698 165.156 203.21 166.242 196.806C166.908 192.879 171.157 185.63 171.157 185.63L171.813 146.923C171.813 146.923 167.367 147.892 162.059 151.633C154.937 156.651 146 165.35 141.665 170.911C134.597 179.977 130.134 190.714 128.557 201.44C127.491 208.692 129.663 216.052 131.179 223.247C133.104 232.386 140.905 241.044 139.371 250.233C138.92 252.935 136.925 255.527 134.456 257.321C128.589 261.583 119.792 261.779 112.828 264.68C107.133 267.053 96.4431 272.858 96.4431 272.858V272.858Z" fill="url(#paint6_linear)"/>
<path id="path23843" fill-rule="evenodd" clip-rule="evenodd" d="M246.651 272.858C246.651 272.858 251.195 287.132 247.306 293.029C243.631 298.604 227.645 302.843 227.645 302.843C227.645 302.843 199.528 285.98 187.666 275.584C182.718 271.247 177.107 266.823 174.886 261.137C169.316 246.878 174.526 231.142 175.214 216.16C175.51 209.698 177.939 203.21 176.852 196.806C176.186 192.879 171.937 185.63 171.937 185.63L171.281 146.923C171.281 146.923 175.727 147.892 181.035 151.633C188.157 156.651 197.094 165.35 201.429 170.911C208.498 179.977 212.96 190.714 214.537 201.44C215.603 208.692 213.432 216.052 211.915 223.247C209.99 232.386 202.189 241.044 203.723 250.233C204.174 252.935 206.169 255.527 208.639 257.321C214.505 261.583 223.302 261.779 230.266 264.68C235.961 267.053 246.651 272.858 246.651 272.858V272.858Z" fill="url(#paint7_linear)" stroke="black" stroke-width="0.719369" stroke-linejoin="round"/>
<path id="path42733" d="M182.824 186.082C182.824 186.082 187.797 185.946 190.01 185.118C191.807 184.446 194.589 182.006 194.589 182.006L197.558 187.936C197.558 187.936 194.777 190.377 192.979 191.049C190.767 191.877 185.794 192.012 185.794 192.012L182.824 186.082Z" fill="url(#paint8_linear)" stroke="black" stroke-width="0.359684" stroke-linecap="round" stroke-linejoin="round"/>
<path id="path23871" fill-rule="evenodd" clip-rule="evenodd" d="M171.034 168.78C170.429 168.792 169.87 169.05 169.539 169.472C169.539 169.472 163.951 176.324 161.557 180.267C158.392 185.481 154.848 196.254 154.848 196.254C154.463 197.154 156.087 197.634 156.471 196.734C156.471 196.734 161.946 186.401 164.833 181.645C166.949 178.159 172.582 171.18 172.582 171.18C173.443 170.154 172.537 168.75 171.034 168.78V168.78Z" fill="black"/>
<g id="g23877">
<path id="path23879" fill-rule="evenodd" clip-rule="evenodd" d="M171.995 152.972C172.536 152.963 173.054 153.153 173.411 153.491C173.411 153.491 185.985 164.972 190.995 172C195.239 177.954 199.407 190.533 199.407 190.533C199.802 191.444 198.147 191.924 197.776 191.006C197.776 191.006 191.582 178.808 187.837 173.556C183.328 167.23 170.687 155.539 170.687 155.539C169.605 154.573 170.408 152.997 171.995 152.972V152.972Z" fill="black"/>
<path id="path23881" fill-rule="evenodd" clip-rule="evenodd" d="M171.748 168.78C172.353 168.792 172.912 169.05 173.243 169.472C173.243 169.472 178.831 176.324 181.225 180.267C184.39 185.482 187.934 196.254 187.934 196.254C188.319 197.154 186.695 197.634 186.311 196.734C186.311 196.734 180.836 186.401 177.949 181.645C175.833 178.159 170.2 171.18 170.2 171.18C169.339 170.154 170.245 168.75 171.748 168.78V168.78Z" fill="black"/>
</g>
<path id="path42731" d="M158.62 189.564C158.62 189.564 161.529 191.85 163.35 192.432C164.83 192.906 168.08 192.845 168.08 192.845L165.69 197.614C165.69 197.614 162.439 197.675 160.96 197.201C159.139 196.619 156.23 194.333 156.23 194.333L158.62 189.564Z" fill="url(#paint9_linear)" stroke="black" stroke-width="0.289266" stroke-linecap="round" stroke-linejoin="round"/>
<path id="path23869" fill-rule="evenodd" clip-rule="evenodd" d="M170.786 152.972C170.246 152.963 169.727 153.153 169.371 153.491C169.371 153.491 156.796 164.972 151.787 172C147.542 177.954 143.375 190.533 143.375 190.533C142.979 191.444 144.634 191.924 145.005 191.006C145.005 191.006 151.2 178.808 154.944 173.556C159.454 167.23 172.094 155.539 172.094 155.539C173.177 154.573 172.373 152.997 170.786 152.972Z" fill="black"/>
<path id="rect42726" d="M135.747 179.305C135.747 179.305 139.364 182.147 141.628 182.871C143.468 183.46 147.51 183.385 147.51 183.385L144.538 189.315C144.538 189.315 140.496 189.39 138.656 188.801C136.392 188.077 132.775 185.235 132.775 185.235L135.747 179.305Z" fill="url(#paint10_linear)" stroke="black" stroke-width="0.359684" stroke-linecap="round" stroke-linejoin="round"/>
<path id="path42729" fill-rule="evenodd" clip-rule="evenodd" d="M96.4431 272.858C96.4431 272.858 91.8991 287.132 95.7877 293.029C99.4632 298.604 115.449 302.843 115.449 302.843C115.449 302.843 143.566 285.98 155.428 275.584C160.376 271.247 165.987 266.823 168.208 261.137C173.778 246.878 168.569 231.142 167.881 216.16C167.584 209.698 165.156 203.21 166.242 196.806C166.908 192.879 171.157 185.63 171.157 185.63L171.813 146.923C171.813 146.923 167.367 147.892 162.059 151.633C154.937 156.651 146 165.35 141.665 170.911C134.597 179.977 130.134 190.714 128.557 201.44C127.491 208.692 129.663 216.052 131.179 223.247C133.104 232.386 140.905 241.044 139.371 250.233C138.92 252.935 136.925 255.527 134.456 257.321C128.589 261.583 119.792 261.779 112.828 264.68C107.133 267.053 96.4431 272.858 96.4431 272.858V272.858Z" stroke="black" stroke-width="0.719369" stroke-linejoin="round"/>
<path id="path42821" d="M222.284 300.512C222.284 300.512 232.799 291.225 237.234 285.857C240.837 281.496 245.965 272.493 245.965 272.493C245.965 272.493 250.2 271.56 251.859 272.436C253.418 273.259 254.159 276.629 254.159 276.629C254.159 276.629 249.031 285.632 245.428 289.993C240.993 295.361 230.478 304.648 230.478 304.648C230.478 304.648 226.244 305.581 224.585 304.706C223.025 303.882 222.284 300.512 222.284 300.512V300.512Z" fill="url(#paint11_linear)" stroke="black" stroke-width="0.257274" stroke-linecap="round" stroke-linejoin="round"/>
<path id="path42823" d="M229.717 305.188C229.717 305.188 240.526 295.641 245.085 290.123C248.789 285.64 254.06 276.386 254.06 276.386C254.06 276.386 258.413 275.427 260.118 276.327C261.721 277.174 262.483 280.638 262.483 280.638C262.483 280.638 257.212 289.892 253.508 294.375C248.949 299.893 238.141 309.439 238.141 309.439C238.141 309.439 233.788 310.398 232.082 309.498C230.479 308.652 229.717 305.188 229.717 305.188V305.188Z" fill="url(#paint12_linear)" stroke="black" stroke-width="0.264459" stroke-linecap="round" stroke-linejoin="round"/>
<path id="path42825" d="M235.333 311.473C235.333 311.473 247.023 301.149 251.953 295.181C255.959 290.332 261.66 280.325 261.66 280.325C261.66 280.325 266.368 279.287 268.212 280.261C269.946 281.176 270.77 284.923 270.77 284.923C270.77 284.923 265.069 294.93 261.063 299.779C256.133 305.747 244.443 316.071 244.443 316.071C244.443 316.071 239.735 317.109 237.891 316.135C236.157 315.22 235.333 311.473 235.333 311.473V311.473Z" fill="url(#paint13_linear)" stroke="black" stroke-width="0.286014" stroke-linecap="round" stroke-linejoin="round"/>
<path id="path42827" d="M119.765 301.283C119.765 301.283 109.25 291.996 104.815 286.628C101.212 282.267 96.0837 273.264 96.0837 273.264C96.0837 273.264 91.8489 272.331 90.19 273.207C88.6304 274.03 87.8893 277.4 87.8893 277.4C87.8893 277.4 93.0174 286.403 96.6207 290.764C101.055 296.132 111.57 305.419 111.57 305.419C111.57 305.419 115.805 306.352 117.464 305.477C119.024 304.653 119.765 301.283 119.765 301.283V301.283Z" fill="url(#paint14_linear)" stroke="black" stroke-width="0.257274" stroke-linecap="round" stroke-linejoin="round"/>
<path id="path42829" d="M112.332 305.959C112.332 305.959 101.523 296.412 96.9644 290.894C93.2604 286.411 87.9892 277.157 87.9892 277.157C87.9892 277.157 83.6361 276.198 81.9309 277.098C80.3278 277.945 79.566 281.409 79.566 281.409C79.566 281.409 84.8373 290.663 88.5412 295.146C93.0997 300.664 103.908 310.21 103.908 310.21C103.908 310.21 108.261 311.169 109.967 310.269C111.57 309.423 112.332 305.959 112.332 305.959V305.959Z" fill="url(#paint15_linear)" stroke="black" stroke-width="0.264459" stroke-linecap="round" stroke-linejoin="round"/>
<path id="path42831" d="M106.716 312.244C106.716 312.244 95.0259 301.92 90.0958 295.952C86.09 291.103 80.3891 281.096 80.3891 281.096C80.3891 281.096 75.6812 280.058 73.8371 281.032C72.1033 281.947 71.2794 285.694 71.2794 285.694C71.2794 285.694 76.9803 295.701 80.9861 300.55C85.9162 306.518 97.606 316.842 97.606 316.842C97.606 316.842 102.314 317.88 104.158 316.906C105.892 315.991 106.716 312.244 106.716 312.244V312.244Z" fill="url(#paint16_linear)" stroke="black" stroke-width="0.286014" stroke-linecap="round" stroke-linejoin="round"/>
</g>
</g>
</g>
</g>
</g>
<defs>
<filter id="filter0_f" x="41.2237" y="33.7755" width="261.553" height="314.449" filterUnits="userSpaceOnUse" color-interpolation-filters="sRGB">
<feFlood flood-opacity="0" result="BackgroundImageFix"/>
<feBlend mode="normal" in="SourceGraphic" in2="BackgroundImageFix" result="shape"/>
<feGaussianBlur stdDeviation="1.53385" result="effect1_foregroundBlur"/>
</filter>
<filter id="filter1_f" x="42.4829" y="29.8689" width="260.323" height="313.214" filterUnits="userSpaceOnUse" color-interpolation-filters="sRGB">
<feFlood flood-opacity="0" result="BackgroundImageFix"/>
<feBlend mode="normal" in="SourceGraphic" in2="BackgroundImageFix" result="shape"/>
<feGaussianBlur stdDeviation="1.22708" result="effect1_foregroundBlur"/>
</filter>
<radialGradient id="paint0_radial" cx="0" cy="0" r="1" gradientUnits="userSpaceOnUse" gradientTransform="translate(169.262 142.021) scale(97.2596 103.917)">
<stop stop-color="#BA131A"/>
<stop offset="1" stop-color="#D71A20"/>
</radialGradient>
<linearGradient id="paint1_linear" x1="209.879" y1="184.715" x2="235.026" y2="184.715" gradientUnits="userSpaceOnUse">
<stop stop-color="#CF8A15"/>
<stop offset="0.557697" stop-color="#F7E84D"/>
<stop offset="1" stop-color="#CF8A15"/>
</linearGradient>
<radialGradient id="paint2_radial" cx="0" cy="0" r="1" gradientUnits="userSpaceOnUse" gradientTransform="translate(169.6 114.412) scale(76.1156 79.8563)">
<stop stop-color="#D38D5F"/>
<stop offset="1" stop-color="#C87137"/>
</radialGradient>
<linearGradient id="paint3_linear" x1="138.802" y1="90.6135" x2="166.006" y2="31.6018" gradientUnits="userSpaceOnUse">
<stop stop-color="#170003"/>
<stop offset="1"/>
</linearGradient>
<linearGradient id="paint4_linear" x1="152.542" y1="40.6149" x2="217.163" y2="116.57" gradientUnits="userSpaceOnUse">
<stop/>
<stop offset="1" stop-color="#170003"/>
</linearGradient>
<linearGradient id="paint5_linear" x1="126.756" y1="186.241" x2="101.609" y2="186.241" gradientUnits="userSpaceOnUse">
<stop stop-color="#CF8A15"/>
<stop offset="0.557697" stop-color="#F7E84D"/>
<stop offset="1" stop-color="#CF8A15"/>
</linearGradient>
<linearGradient id="paint6_linear" x1="146.09" y1="172.455" x2="142.067" y2="261.971" gradientUnits="userSpaceOnUse">
<stop stop-color="#D38D5F"/>
<stop offset="1" stop-color="#C87137"/>
</linearGradient>
<linearGradient id="paint7_linear" x1="186.13" y1="127.738" x2="189.807" y2="298.933" gradientUnits="userSpaceOnUse">
<stop stop-color="#D38D5F"/>
<stop offset="1" stop-color="#C87137"/>
</linearGradient>
<linearGradient id="paint8_linear" x1="181.907" y1="187.009" x2="198.476" y2="187.009" gradientUnits="userSpaceOnUse">
<stop stop-color="#CF8A15"/>
<stop offset="0.557697" stop-color="#F7E84D"/>
<stop offset="1" stop-color="#CF8A15"/>
</linearGradient>
<linearGradient id="paint9_linear" x1="155.492" y1="193.59" x2="168.818" y2="193.59" gradientUnits="userSpaceOnUse">
<stop stop-color="#CF8A15"/>
<stop offset="0.557697" stop-color="#F7E84D"/>
<stop offset="1" stop-color="#CF8A15"/>
</linearGradient>
<linearGradient id="paint10_linear" x1="131.857" y1="184.312" x2="148.427" y2="184.312" gradientUnits="userSpaceOnUse">
<stop stop-color="#CF8A15"/>
<stop offset="0.557697" stop-color="#F7E84D"/>
<stop offset="1" stop-color="#CF8A15"/>
</linearGradient>
<linearGradient id="paint11_linear" x1="239.323" y1="283.664" x2="246.128" y2="290.066" gradientUnits="userSpaceOnUse">
<stop stop-color="#CF8A15"/>
<stop offset="0.557697" stop-color="#F7E84D"/>
<stop offset="1" stop-color="#CF8A15"/>
</linearGradient>
<linearGradient id="paint12_linear" x1="243.789" y1="289.914" x2="250.271" y2="295.985" gradientUnits="userSpaceOnUse">
<stop stop-color="#CF8A15"/>
<stop offset="0.557697" stop-color="#F7E84D"/>
<stop offset="1" stop-color="#CF8A15"/>
</linearGradient>
<linearGradient id="paint13_linear" x1="252.627" y1="293.564" x2="259.946" y2="301.174" gradientUnits="userSpaceOnUse">
<stop stop-color="#CF8A15"/>
<stop offset="0.557697" stop-color="#F7E84D"/>
<stop offset="1" stop-color="#CF8A15"/>
</linearGradient>
<linearGradient id="paint14_linear" x1="97.4285" y1="292.426" x2="106.455" y2="288.214" gradientUnits="userSpaceOnUse">
<stop stop-color="#CF8A15"/>
<stop offset="0.557697" stop-color="#F7E84D"/>
<stop offset="1" stop-color="#CF8A15"/>
</linearGradient>
<linearGradient id="paint15_linear" x1="92.7943" y1="296.382" x2="97.0299" y2="292.544" gradientUnits="userSpaceOnUse">
<stop stop-color="#CF8A15"/>
<stop offset="0.557697" stop-color="#F7E84D"/>
<stop offset="1" stop-color="#CF8A15"/>
</linearGradient>
<linearGradient id="paint16_linear" x1="82.5989" y1="301.667" x2="89.3784" y2="296.271" gradientUnits="userSpaceOnUse">
<stop stop-color="#CF8A15"/>
<stop offset="0.557697" stop-color="#F7E84D"/>
<stop offset="1" stop-color="#CF8A15"/>
</linearGradient>
</defs>
</svg>
