<svg width="444" height="520" viewBox="0 0 444 520" fill="none" xmlns="http://www.w3.org/2000/svg">
<g id="indian-woman 1">
<g id="layer1">
<g id="g10101">
<g id="path9105" filter="url(#filter0_f)">
<path d="M217.458 50.153C196.408 50.1522 175.565 54.8234 156.118 63.8999C136.67 72.9765 119 86.2807 104.115 103.053C89.2309 119.825 77.4238 139.736 69.3684 161.651C61.3129 183.565 57.1668 207.052 57.1667 230.772C57.1768 258.173 62.7195 285.213 73.375 309.844C84.0305 334.475 99.5196 356.05 118.669 372.938C118.373 372.919 118.084 372.912 117.787 372.909C117.657 372.907 117.531 372.91 117.403 372.909C117.187 372.909 116.977 372.925 116.77 372.938C116.541 372.955 116.328 372.989 116.115 373.026C115.994 373.046 115.867 373.061 115.753 373.088C115.424 373.165 115.122 373.263 114.87 373.403C114.62 373.542 114.389 373.74 114.173 373.965C114.162 373.981 114.155 373.991 114.145 374.002C113.52 374.667 113.056 375.598 112.704 376.498C112.633 376.679 112.588 376.82 112.526 376.994C112.351 377.496 112.218 377.893 112.128 378.237C112.058 378.487 112.035 378.557 112 378.705C111.996 378.721 111.985 378.757 111.982 378.77C111.948 378.77 111.628 378.69 111.078 378.589C110.744 378.527 110.28 378.474 109.819 378.408C109.501 378.363 109.257 378.312 108.905 378.277C108.496 378.236 108.078 378.204 107.653 378.186C107.647 378.186 107.642 378.186 107.635 378.186C106.845 378.157 106.069 378.202 105.386 378.323C105.32 378.339 105.238 378.339 105.173 378.355C105.169 378.356 105.166 378.354 105.162 378.355C104.805 378.437 104.48 378.547 104.209 378.699C103.964 378.834 103.743 379.03 103.529 379.248C103.482 379.297 103.44 379.352 103.394 379.404C103.215 379.606 103.045 379.826 102.889 380.066C102.871 380.093 102.853 380.119 102.836 380.148C102.536 380.623 102.301 381.133 102.085 381.655C101.988 381.888 101.907 382.088 101.825 382.313C101.649 382.805 101.514 383.223 101.413 383.59C101.368 383.749 101.338 383.833 101.306 383.958C101.163 383.931 100.993 383.913 100.822 383.883C100.369 383.803 99.8718 383.729 99.2822 383.658C98.8053 383.601 98.3495 383.556 97.838 383.527C97.7163 383.527 97.6043 383.506 97.4822 383.501C97.0433 383.484 96.6109 383.486 96.1875 383.517C96.1184 383.517 96.0529 383.518 95.9847 383.533C95.6272 383.559 95.289 383.604 94.9674 383.668C94.8759 383.685 94.7809 383.7 94.6935 383.721C94.6002 383.744 94.5115 383.772 94.4231 383.799C94.1968 383.869 93.9841 383.951 93.7971 384.052C93.788 384.052 93.7745 384.052 93.765 384.068C93.7637 384.068 93.7632 384.068 93.7614 384.068C93.4825 384.224 93.2215 384.44 92.9788 384.698C92.7362 384.956 92.5097 385.255 92.303 385.581C92.3025 385.582 92.3035 385.581 92.303 385.581C91.8891 386.234 91.5476 386.985 91.275 387.7C91.079 388.214 90.962 388.635 90.8374 389.057C90.7884 389.223 90.7012 389.45 90.6631 389.591C90.6629 389.592 90.6633 389.591 90.6631 389.591C90.5293 390.086 90.4604 390.405 90.4604 390.405C90.4604 390.405 94.5977 398.067 98.8481 404.683C98.8489 404.684 98.8517 404.683 98.8517 404.683C99.9909 406.456 101.121 408.09 102.199 409.544C102.461 409.898 102.736 410.302 102.989 410.624C102.989 410.625 102.988 410.624 102.989 410.624C107.762 416.717 117.442 426.144 121.984 430.478C123.498 431.922 124.438 432.8 124.438 432.8H124.442C124.447 432.801 125.961 433.153 127.775 433.34C128.229 433.386 128.704 433.424 129.176 433.442C130.121 433.477 131.064 433.441 131.851 433.264C132.245 433.176 132.6 433.052 132.897 432.886C133.177 432.732 133.436 432.515 133.68 432.256C134.167 431.738 134.581 431.051 134.925 430.331C135.439 429.252 135.796 428.103 135.999 427.356C135.999 427.356 135.998 427.355 135.999 427.356C136.134 426.859 136.198 426.542 136.198 426.542C136.198 426.542 135.108 425.52 133.47 423.955C133.475 423.956 133.482 423.955 133.488 423.955C133.493 423.956 133.504 423.955 133.509 423.955C134.001 424.046 134.662 424.143 135.38 424.226C135.861 424.282 136.33 424.329 136.842 424.351C136.874 424.352 136.903 424.367 136.935 424.367C136.94 424.367 136.946 424.367 136.953 424.367C137.345 424.383 137.731 424.383 138.109 424.367C138.217 424.367 138.317 424.351 138.422 424.341C138.69 424.321 138.945 424.287 139.19 424.242C139.307 424.222 139.422 424.201 139.532 424.174C139.851 424.094 140.15 423.999 140.396 423.862C142.463 422.711 143.446 418.004 143.448 417.995C143.448 417.995 142.891 417.469 142.726 417.315C142.872 417.347 143.053 417.385 143.498 417.465C143.93 417.546 144.457 417.617 145.12 417.699C145.278 417.718 145.393 417.739 145.558 417.755C146.725 417.875 147.998 417.915 149.044 417.692C149.075 417.692 149.112 417.676 149.143 417.676C149.49 417.597 149.809 417.491 150.075 417.343C152.088 416.222 153.042 411.632 153.042 411.632C153.042 411.632 152.395 411.015 152.124 410.761C152.213 410.704 152.347 410.614 152.437 410.555C153.769 409.692 154.887 408.955 156.684 407.771C157.272 407.385 157.763 407.067 158.399 406.645C160.711 405.114 163.223 403.429 165.94 401.583C165.955 401.589 165.971 401.594 165.986 401.599C170.729 403.417 175.545 404.983 180.418 406.293C181.199 406.498 181.981 406.697 182.765 406.889C186.863 407.924 190.994 408.778 195.151 409.448C196.797 409.701 198.447 409.926 200.099 410.122C203.841 410.615 207.597 410.96 211.361 411.155C213.392 411.28 215.424 411.361 217.458 411.398C219.923 411.364 222.388 411.267 224.85 411.105C227.859 411.507 230.955 411.879 234.112 412.235C234.624 412.292 235.147 412.346 235.663 412.403C238.354 412.697 241.1 412.976 243.902 413.239C244.603 413.305 245.306 413.372 246.014 413.436C248.613 413.671 251.266 413.89 253.961 414.101C254.873 414.172 255.769 414.248 256.693 414.316C260.162 414.573 263.692 414.819 267.325 415.04C267.835 415.07 268.334 415.07 268.837 415.08C269.166 415.08 269.5 415.109 269.826 415.109C270.314 415.109 270.792 415.078 271.274 415.059C271.629 415.043 271.989 415.04 272.341 415.016C272.831 414.983 273.312 414.93 273.796 414.879C274.114 414.845 274.433 414.816 274.749 414.776C275.267 414.709 275.781 414.628 276.293 414.542C276.566 414.496 276.84 414.453 277.111 414.402C277.643 414.303 278.169 414.192 278.694 414.074C278.935 414.02 279.176 413.967 279.416 413.909C279.964 413.776 280.508 413.632 281.049 413.481C281.244 413.427 281.441 413.372 281.636 413.316C282.239 413.139 282.837 412.951 283.432 412.754C283.537 412.719 283.643 412.684 283.748 412.648C284.38 412.435 285.007 412.212 285.63 411.978C285.666 411.962 285.704 411.954 285.74 411.939C285.761 412.006 285.793 412.091 285.815 412.161C286.02 412.81 286.268 413.502 286.633 414.221C286.689 414.333 286.751 414.433 286.811 414.542C286.955 414.8 287.11 415.036 287.277 415.263C287.373 415.394 287.461 415.531 287.565 415.647C287.606 415.691 287.648 415.733 287.69 415.774C287.891 415.979 288.103 416.164 288.334 416.292C288.596 416.438 288.91 416.543 289.251 416.623C289.32 416.639 289.398 416.644 289.468 416.657C290.482 416.854 291.683 416.822 292.801 416.71C293.026 416.687 293.186 416.662 293.399 416.635C294.014 416.556 294.501 416.492 294.907 416.416C295.35 416.336 295.528 416.299 295.676 416.266C295.512 416.419 294.957 416.946 294.957 416.946C294.957 416.946 295.018 417.24 295.142 417.698C295.391 418.618 295.894 420.198 296.661 421.406C297.044 422.01 297.492 422.522 298.009 422.81C298.029 422.826 298.059 422.826 298.08 422.836C298.316 422.959 298.59 423.053 298.888 423.126C298.989 423.15 299.097 423.169 299.204 423.188C299.452 423.235 299.709 423.267 299.98 423.287C300.089 423.303 300.195 423.306 300.307 423.313C300.682 423.33 301.064 423.337 301.452 423.329C302.016 423.308 302.533 423.251 303.06 423.188C303.773 423.105 304.431 423.01 304.917 422.92C304.928 422.92 304.924 422.919 304.935 422.92C304.863 422.989 304.735 423.119 304.665 423.185C303.297 424.488 302.207 425.507 302.207 425.507C302.207 425.507 302.622 427.498 303.48 429.296C303.823 430.014 304.239 430.701 304.725 431.218C304.969 431.477 305.228 431.693 305.508 431.848C305.657 431.931 305.82 432.002 305.995 432.064H305.999C306.173 432.126 306.358 432.179 306.554 432.223H306.557C307.739 432.487 309.269 432.442 310.63 432.302C311.537 432.209 312.371 432.073 312.978 431.962H312.982C313.585 431.85 313.963 431.762 313.963 431.762H313.967C313.967 431.762 314.911 430.881 316.422 429.44H316.425C320.967 425.107 330.644 415.682 335.417 409.589C336.002 408.842 336.613 408.002 337.234 407.108C339.01 404.572 340.833 401.615 342.524 398.792C350.51 403.611 356.046 413.787 359.996 424.971C360.313 425.869 360.603 426.781 360.9 427.689C361.309 428.94 361.715 430.192 362.088 431.453C362.306 432.193 362.508 432.931 362.714 433.672C363.071 434.949 363.426 436.226 363.749 437.495C363.932 438.213 364.099 438.922 364.272 439.635C364.572 440.872 364.872 442.107 365.144 443.318C365.322 444.113 365.482 444.885 365.649 445.665C365.869 446.694 366.091 447.724 366.293 448.72C366.742 450.95 367.092 452.893 367.459 454.892C368.019 457.935 368.516 460.526 368.932 462.788C369.143 463.94 369.39 465.358 369.576 466.249C369.672 466.708 369.759 467.028 369.85 467.409C369.945 467.813 370.047 468.294 370.138 468.605C370.174 468.729 370.209 468.817 370.244 468.926C370.294 469.076 370.346 469.244 370.394 469.363C370.427 469.446 370.46 469.489 370.493 469.556C370.544 469.659 370.593 469.781 370.643 469.847C370.909 469.831 371.169 469.783 371.425 469.706C371.517 469.679 371.608 469.639 371.699 469.604C371.869 469.537 372.036 469.455 372.201 469.36C372.292 469.308 372.385 469.253 372.475 469.192C372.666 469.061 372.852 468.908 373.037 468.739C373.085 468.695 373.135 468.661 373.183 468.615C373.421 468.381 373.653 468.112 373.88 467.816C373.917 467.766 373.953 467.71 373.99 467.659C374.156 467.434 374.315 467.181 374.474 466.923C374.767 466.444 375.054 465.924 375.324 465.338C375.416 465.138 375.501 464.91 375.591 464.698C375.771 464.27 375.949 463.822 376.117 463.347C376.231 463.026 376.343 462.708 376.451 462.367C376.649 461.745 376.838 461.098 377.017 460.41C377.149 459.904 377.272 459.365 377.394 458.825C377.444 458.604 377.492 458.379 377.54 458.154C378.426 453.996 379.015 448.929 379.269 443.234C379.274 443.256 379.278 443.27 379.283 443.293C379.515 444.374 379.736 445.221 379.949 445.506C381.099 445.459 382.112 444.794 382.983 443.605C383.157 443.367 383.325 443.11 383.488 442.831C386.092 438.36 387.23 428.658 386.711 416.571C386.646 415.06 386.554 413.513 386.437 411.933C385.501 399.293 382.888 384.618 378.412 370.753C378.283 370.353 378.135 369.962 378.003 369.564C376.989 366.509 375.9 363.485 374.702 360.548C374.024 358.888 373.319 357.253 372.582 355.645C371.844 354.038 371.075 352.458 370.277 350.915C369.479 349.371 368.65 347.864 367.79 346.396C366.931 344.928 366.041 343.499 365.119 342.117C364.197 340.735 363.244 339.401 362.259 338.116C359.797 334.905 357.14 332.016 354.277 329.535C353.132 328.542 351.955 327.614 350.745 326.757H350.741C348.925 325.473 347.036 324.346 345.071 323.399C342.806 322.308 340.651 321.484 338.579 320.884C341.272 317.268 343.853 313.487 346.312 309.528C346.375 309.427 346.438 309.327 346.501 309.225C347.313 307.912 348.117 306.587 348.902 305.234C358.255 281.932 363.113 256.658 363.148 231.083C363.148 230.75 363.135 230.418 363.134 230.085C363.124 228.619 363.103 227.154 363.062 225.691C363.061 225.618 363.053 225.545 363.051 225.472C362.897 220.072 362.526 214.692 361.945 209.345C361.961 208.873 361.975 208.4 361.988 207.928C361.988 166.149 347.259 126.081 321.043 96.5383C294.826 66.9959 259.269 50.3991 222.193 50.399C222.068 50.4041 221.944 50.4095 221.819 50.415C220.367 50.3054 218.913 50.218 217.458 50.153V50.153ZM89.4548 158.846C89.3622 159.218 89.2709 159.591 89.1809 159.964C89.1973 159.796 89.2075 159.622 89.2235 159.455C89.3002 159.252 89.3773 159.049 89.4547 158.846H89.4548Z" fill="black"/>
</g>
<g id="g63584">
<g id="path43095" opacity="0.1" filter="url(#filter1_f)">
<path d="M218.289 44C197.239 43.9995 176.396 48.671 156.949 57.7477C137.502 66.8244 119.832 80.1286 104.948 96.9006C90.0637 113.673 78.2569 133.584 70.2015 155.498C62.1462 177.412 58.0001 200.899 58 224.618C58.0099 252.02 63.5525 279.061 74.2081 303.692C84.8638 328.323 100.353 349.899 119.504 366.786C118.082 366.695 116.6 366.753 115.701 367.253C113.92 368.245 113.011 371.781 112.814 372.623C112.676 372.591 107.216 371.339 105.042 372.55C103.39 373.469 102.457 376.56 102.137 377.809C100.379 377.478 96.4267 376.884 94.5968 377.903C92.359 379.149 91.2938 384.25 91.2938 384.25C91.2938 384.25 98.6509 397.873 103.821 404.473C110.184 412.597 125.272 426.653 125.272 426.653C125.272 426.653 131.348 428.064 133.729 426.738C135.967 425.492 137.032 420.391 137.032 420.391C137.032 420.391 135.941 419.371 134.302 417.806C135.971 418.115 139.566 418.629 141.228 417.704C143.297 416.552 144.281 411.836 144.281 411.836C144.281 411.836 143.724 411.308 143.559 411.154C144.257 411.308 148.921 412.287 150.905 411.182C152.918 410.061 153.875 405.472 153.875 405.472C153.875 405.472 153.225 404.854 152.955 404.599C156.304 402.433 160.791 399.486 166.773 395.423C183.353 401.847 200.756 405.162 218.289 405.237C220.754 405.202 223.219 405.103 225.681 404.94C238.462 406.648 252.523 407.926 268.158 408.877C274.818 409.282 280.87 407.933 286.574 405.776C287.012 407.221 287.838 409.393 289.165 410.131C291.149 411.236 295.812 410.261 296.511 410.107C296.346 410.261 295.789 410.789 295.789 410.789C295.789 410.789 296.773 415.501 298.842 416.653C300.507 417.58 304.107 417.064 305.772 416.754C304.132 418.322 303.038 419.344 303.038 419.344C303.038 419.344 304.103 424.441 306.341 425.687C308.721 427.013 314.798 425.602 314.798 425.602C314.798 425.602 329.885 411.55 336.249 403.426C338.485 400.571 341.071 396.44 343.354 392.627C365.439 405.956 368.867 460.197 371.476 463.683C376.255 463.488 379.411 452.511 380.099 437.067C380.335 438.179 380.563 439.051 380.779 439.34C395.5 438.74 387.825 337.435 345.903 317.237C343.623 316.138 341.455 315.314 339.371 314.712C343.031 309.801 346.513 304.621 349.734 299.067C359.087 275.765 363.942 250.49 363.977 224.915C363.97 217.717 363.534 210.548 362.77 203.433C362.789 202.876 362.806 202.319 362.821 201.761C362.821 159.982 348.092 119.913 321.876 90.371C295.659 60.8284 260.102 44.2316 223.026 44.2315C222.901 44.2368 222.776 44.2424 222.651 44.2481C221.198 44.1433 219.744 44.0607 218.289 44.0005V44ZM90.2853 152.694C90.1931 153.067 90.1021 153.44 90.0124 153.814C90.029 153.646 90.0379 153.47 90.054 153.303C90.1308 153.1 90.208 152.897 90.2855 152.694H90.2853Z" fill="black"/>
</g>
<path id="path42672" d="M343.379 344.762C307.346 325.769 300.101 377.435 222.895 377.435C145.686 377.437 80.7025 310.057 80.7024 223.054C80.7362 206.38 83.1191 189.818 87.7618 173.987C78.9898 196.679 74.4502 221.16 74.4248 245.911C74.4603 271.486 79.3153 296.761 88.6685 320.063C128.33 388.468 163.856 408.738 267.324 415.032C296.025 416.778 313.507 386.102 339.93 397.421C364.357 407.886 367.935 466.216 370.643 469.834C385.364 469.234 384.852 366.622 343.379 344.762V344.762Z" fill="#DC661E"/>
<path id="path42670" d="M349.807 159.145C354.449 174.976 356.832 191.538 356.866 208.212C356.866 255.562 338.303 298 308.958 326.877C315.208 325.469 321.856 326.072 329.845 329.921C330.192 330.088 330.53 330.274 330.872 330.453C337.45 322.892 343.503 314.529 348.9 305.221C358.253 281.919 363.108 256.644 363.144 231.069C363.118 206.318 358.579 181.836 349.807 159.145V159.145Z" fill="#F78320"/>
<path id="ellipse42656" d="M345.071 323.389C307.24 305.161 299.401 359.21 222.194 359.21C144.986 359.212 88.376 290.783 88.3759 203.78C88.4097 187.106 87.2037 160.049 91.8464 144.218C83.0744 166.909 76.1422 199.787 76.1168 224.538C76.1524 250.113 81.0073 275.388 90.3605 298.69C130.022 367.095 204.2 386.091 274.297 388.374C301.857 389.272 322.975 346.595 349.398 357.915C373.825 368.379 377.24 441.875 379.948 445.493C394.669 444.893 386.993 343.587 345.071 323.389V323.389Z" fill="#D71A20"/>
<path id="ellipse42568" d="M217.457 50.1536C196.407 50.1532 175.564 54.8246 156.117 63.9013C136.67 72.978 119 86.2822 104.116 103.054C89.2317 119.826 77.4249 139.737 69.3695 161.651C61.3142 183.565 57.1681 207.052 57.168 230.772C57.1681 254.491 61.3142 277.978 69.3695 299.892C77.4249 321.806 89.2317 341.717 104.116 358.489C119 375.261 136.67 388.566 156.117 397.642C175.564 406.719 196.407 411.39 217.457 411.39C221.162 411.387 224.867 411.24 228.564 410.948C187.494 408.682 148.768 388.717 120.394 355.182C92.0201 321.647 76.1681 277.107 76.1163 230.772C76.1417 206.021 80.6813 181.539 89.4533 158.848C84.8106 174.679 82.4278 191.241 82.3939 207.915C82.3939 228.602 86.01 249.087 93.0357 268.2C100.061 287.312 110.359 304.678 123.341 319.306C136.322 333.934 151.734 345.538 168.695 353.454C185.656 361.371 203.835 365.445 222.194 365.444C259.27 365.444 294.827 348.847 321.044 319.305C347.26 289.762 361.989 249.694 361.989 207.915C361.989 166.135 347.26 126.067 321.044 96.5244C294.827 66.9819 259.27 50.3851 222.194 50.3849C222.069 50.3903 221.944 50.3958 221.819 50.4016C220.366 50.2967 218.912 50.2142 217.457 50.154V50.1536Z" fill="#BA131A"/>
<path id="path42564" d="M218.466 334.784C287.796 334.784 343.999 271.451 343.999 193.326C343.999 115.201 287.796 51.8686 218.466 51.8686C149.137 51.8686 92.9337 115.201 92.9337 193.326C92.9337 271.451 149.137 334.784 218.466 334.784Z" fill="url(#paint0_radial)"/>
<path id="path42905" d="M293.583 228.135C296.298 232.635 297.794 238.363 297.802 244.288C297.802 250.893 295.954 257.227 292.664 261.898C289.374 266.568 284.912 269.192 280.259 269.193C277.254 269.189 274.301 268.089 271.682 266C273.327 268.74 275.37 270.941 277.671 272.452C279.972 273.964 282.477 274.749 285.013 274.754C289.666 274.753 294.128 272.129 297.418 267.459C300.708 262.788 302.556 256.454 302.556 249.849C302.554 245.424 301.722 241.081 300.145 237.264C298.568 233.448 296.303 230.296 293.583 228.135V228.135Z" fill="url(#paint1_linear)" stroke="black" stroke-width="0.240648" stroke-linecap="round" stroke-linejoin="round"/>
<path id="path23626" d="M217.706 282.312C270.655 282.312 313.58 234.574 313.58 175.685C313.58 116.797 270.655 69.0584 217.706 69.0584C164.756 69.0584 121.832 116.797 121.832 175.685C121.832 234.574 164.756 282.312 217.706 282.312Z" fill="url(#paint2_radial)" stroke="black" stroke-width="0.719369" stroke-linecap="round" stroke-linejoin="round"/>
<path id="path23628" fill-rule="evenodd" clip-rule="evenodd" d="M217.705 69.058C205.115 69.0578 192.648 71.8157 181.015 77.1742C169.383 82.5327 158.814 90.3868 149.911 100.288C141.008 110.19 133.946 121.944 129.128 134.881C124.31 147.818 121.83 161.684 121.83 175.686C121.845 189.266 124.193 202.717 128.746 215.317C131.426 198.682 138.188 173.781 154.962 170.276C203.183 160.201 222.632 126.494 222.632 126.494L221.198 69.2528C220.035 69.1643 218.871 69.0994 217.705 69.0581V69.058Z" fill="#290005" stroke="black" stroke-width="0.719369"/>
<path id="path23636" fill-rule="evenodd" clip-rule="evenodd" d="M219.136 69.058C218.897 69.0705 218.658 69.084 218.419 69.0985C219.346 69.1349 220.273 69.1863 221.199 69.2527L222.633 126.493C222.633 126.493 221.256 128.839 218.419 132.435C226.411 142.564 246.288 162.84 281.879 170.276C298.653 173.781 305.416 198.682 308.095 215.317C312.649 202.717 314.996 189.266 315.011 175.686C315.011 161.683 312.532 147.818 307.713 134.881C302.895 121.944 295.833 110.189 286.93 100.288C278.027 90.3867 267.458 82.5325 255.826 77.174C244.194 71.8155 231.727 69.0577 219.136 69.0579V69.058Z" fill="#290005" stroke="black" stroke-width="0.719369"/>
<path id="path23805" d="M164.997 184.711C164.927 187.132 184.265 187.188 188.683 192.504C195.759 201.522 201.504 203.365 204.966 199.091C207.746 195.66 199.185 192.022 194.977 190C186.036 185.704 164.97 182.31 164.997 184.711V184.711ZM161.181 196.469C160.322 196.688 163.597 196.736 166.261 202.343C170.776 211.844 189.267 217.12 196.696 213.836C202.226 210.688 200.916 214.294 200.137 215.353L206.692 205.519C196.151 211.614 185.937 211.443 176.123 204.979C166.993 198.967 162.284 196.187 161.181 196.469V196.469Z" fill="black"/>
<path id="path23813" d="M274.634 184.711C274.704 187.132 255.366 187.188 250.948 192.504C243.872 201.522 238.127 203.365 234.665 199.091C231.885 195.66 240.446 192.022 244.654 190C253.594 185.704 274.66 182.31 274.634 184.711V184.711ZM278.45 196.469C279.309 196.688 276.034 196.736 273.37 202.343C268.855 211.844 250.364 217.12 242.935 213.836C237.405 210.688 238.715 214.294 239.494 215.353L232.939 205.519C243.48 211.614 253.694 211.443 263.508 204.979C272.638 198.967 277.347 196.187 278.45 196.469V196.469Z" fill="black"/>
<path id="path23819" d="M220.521 174.212C223.494 174.212 225.904 171.392 225.904 167.915C225.904 164.437 223.494 161.618 220.521 161.618C217.548 161.618 215.138 164.437 215.138 167.915C215.138 171.392 217.548 174.212 220.521 174.212Z" fill="#E50000"/>
<path id="path23821" d="M217.707 69.058C204.635 69.071 191.704 72.0565 179.708 77.8312C167.712 83.6058 156.905 92.0476 147.95 102.638C146.434 108.207 145.661 113.994 145.656 119.813C145.668 128.993 147.591 138.045 151.274 146.258C154.956 154.47 160.298 161.619 166.88 167.143C206.405 154.588 222.633 126.494 222.633 126.494L221.199 69.2528C220.036 69.1643 218.872 69.0994 217.707 69.0581V69.058Z" fill="url(#paint3_linear)"/>
<path id="ellipse23825" d="M222.619 69.196C222.15 69.6402 221.687 70.0934 221.232 70.5555L222.633 126.493C222.633 126.493 221.256 128.839 218.419 132.435C226.132 142.211 244.961 161.406 278.257 169.42C285.071 165.89 291.138 160.796 296.059 154.47C300.981 148.144 304.646 140.73 306.814 132.715C299.552 114.408 287.806 98.7432 272.917 87.5106C258.029 76.278 240.598 69.9313 222.619 69.196V69.196Z" fill="url(#paint4_linear)"/>
<path id="path42918" d="M140.911 230.212C138.196 234.713 136.7 240.441 136.692 246.366C136.692 252.971 138.541 259.305 141.831 263.976C145.12 268.646 149.583 271.27 154.235 271.271C157.24 271.267 160.193 270.167 162.812 268.078C161.168 270.818 159.124 273.019 156.823 274.53C154.522 276.042 152.017 276.827 149.481 276.832C144.829 276.831 140.366 274.207 137.076 269.537C133.787 264.866 131.938 258.532 131.938 251.927C131.94 247.502 132.773 243.158 134.35 239.342C135.927 235.525 138.191 232.374 140.911 230.212V230.212Z" fill="url(#paint5_linear)" stroke="black" stroke-width="0.240648" stroke-linecap="round" stroke-linejoin="round"/>
<g id="hands">
<path id="path23841" fill-rule="evenodd" clip-rule="evenodd" d="M124.479 371.43C124.479 371.43 118.614 390.86 123.633 398.888C128.377 406.476 149.01 412.246 149.01 412.246C149.01 412.246 185.301 389.293 200.611 375.14C206.997 369.237 214.239 363.215 217.106 355.474C224.295 336.064 217.571 314.643 216.683 294.249C216.3 285.452 213.166 276.621 214.568 267.904C215.428 262.557 220.912 252.691 220.912 252.691L221.758 200C221.758 200 216.02 201.319 209.169 206.411C199.977 213.242 188.442 225.084 182.847 232.653C173.723 244.995 167.963 259.611 165.928 274.212C164.553 284.083 167.355 294.102 169.312 303.897C171.797 316.337 181.866 328.122 179.886 340.632C179.304 344.309 176.729 347.837 173.542 350.279C165.969 356.081 154.615 356.348 145.627 360.298C138.276 363.528 124.479 371.43 124.479 371.43V371.43Z" fill="url(#paint6_linear)"/>
<path id="path23843" fill-rule="evenodd" clip-rule="evenodd" d="M318.352 371.43C318.352 371.43 324.217 390.86 319.198 398.888C314.454 406.476 293.821 412.246 293.821 412.246C293.821 412.246 257.53 389.293 242.22 375.14C235.834 369.237 228.592 363.215 225.725 355.474C218.536 336.064 225.26 314.643 226.148 294.249C226.531 285.452 229.665 276.621 228.263 267.904C227.402 262.557 221.918 252.691 221.918 252.691L221.072 200C221.072 200 226.81 201.319 233.662 206.411C242.854 213.242 254.389 225.084 259.984 232.653C269.107 244.995 274.867 259.611 276.902 274.212C278.278 284.083 275.476 294.102 273.519 303.897C271.033 316.337 260.965 328.122 262.945 340.632C263.527 344.309 266.102 347.837 269.289 350.279C276.861 356.081 288.215 356.348 297.204 360.298C304.554 363.528 318.352 371.43 318.352 371.43V371.43Z" fill="url(#paint7_linear)" stroke="black" stroke-width="0.719369" stroke-linejoin="round"/>
<path id="path42733" d="M235.971 253.305C235.971 253.305 242.389 253.12 245.245 251.994C247.565 251.078 251.155 247.756 251.155 247.756L254.988 255.83C254.988 255.83 251.398 259.152 249.078 260.067C246.222 261.193 239.804 261.378 239.804 261.378L235.971 253.305Z" fill="url(#paint8_linear)" stroke="black" stroke-width="0.359684" stroke-linecap="round" stroke-linejoin="round"/>
<path id="path23871" fill-rule="evenodd" clip-rule="evenodd" d="M220.753 229.753C219.972 229.769 219.251 230.121 218.824 230.694C218.824 230.694 211.611 240.022 208.521 245.39C204.436 252.488 199.861 267.151 199.861 267.151C199.365 268.377 201.46 269.031 201.957 267.805C201.957 267.805 209.023 253.74 212.75 247.265C215.48 242.52 222.751 233.02 222.751 233.02C223.862 231.624 222.693 229.712 220.753 229.753V229.753Z" fill="black"/>
<g id="g23877">
<path id="path23879" fill-rule="evenodd" clip-rule="evenodd" d="M221.994 208.235C222.692 208.222 223.361 208.481 223.821 208.941C223.821 208.941 240.051 224.57 246.517 234.136C251.995 242.241 257.374 259.364 257.374 259.364C257.884 260.604 255.748 261.257 255.269 260.008C255.269 260.008 247.274 243.404 242.441 236.254C236.621 227.643 220.305 211.729 220.305 211.729C218.909 210.414 219.945 208.269 221.994 208.235V208.235Z" fill="black"/>
<path id="path23881" fill-rule="evenodd" clip-rule="evenodd" d="M221.675 229.753C222.456 229.769 223.177 230.121 223.604 230.694C223.604 230.694 230.817 240.023 233.906 245.39C237.992 252.488 242.566 267.152 242.566 267.152C243.063 268.377 240.967 269.031 240.471 267.805C240.471 267.805 233.405 253.74 229.678 247.265C226.947 242.521 219.677 233.02 219.677 233.02C218.566 231.624 219.735 229.713 221.675 229.753V229.753Z" fill="black"/>
</g>
<path id="path42731" d="M204.731 258.045C204.731 258.045 208.485 261.156 210.836 261.95C212.745 262.594 216.941 262.511 216.941 262.511L213.855 269.003C213.855 269.003 209.66 269.086 207.75 268.442C205.4 267.648 201.646 264.537 201.646 264.537L204.731 258.045Z" fill="url(#paint9_linear)" stroke="black" stroke-width="0.289266" stroke-linecap="round" stroke-linejoin="round"/>
<path id="path23869" fill-rule="evenodd" clip-rule="evenodd" d="M220.433 208.235C219.735 208.222 219.067 208.481 218.606 208.941C218.606 208.941 202.377 224.57 195.911 234.136C190.432 242.241 185.053 259.364 185.053 259.364C184.543 260.604 186.679 261.257 187.158 260.008C187.158 260.008 195.154 243.404 199.986 236.254C205.806 227.643 222.122 211.729 222.122 211.729C223.519 210.414 222.482 208.269 220.433 208.235Z" fill="black"/>
<path id="rect42726" d="M175.208 244.08C175.208 244.08 179.877 247.949 182.799 248.935C185.174 249.736 190.39 249.634 190.39 249.634L186.554 257.706C186.554 257.706 181.338 257.809 178.963 257.007C176.041 256.021 171.372 252.153 171.372 252.153L175.208 244.08Z" fill="url(#paint10_linear)" stroke="black" stroke-width="0.359684" stroke-linecap="round" stroke-linejoin="round"/>
<path id="path42729" fill-rule="evenodd" clip-rule="evenodd" d="M124.479 371.43C124.479 371.43 118.614 390.86 123.633 398.888C128.377 406.476 149.01 412.246 149.01 412.246C149.01 412.246 185.301 389.293 200.611 375.14C206.997 369.237 214.239 363.215 217.106 355.474C224.295 336.064 217.571 314.643 216.683 294.249C216.3 285.452 213.166 276.621 214.568 267.904C215.428 262.557 220.912 252.691 220.912 252.691L221.758 200C221.758 200 216.02 201.319 209.169 206.411C199.977 213.242 188.442 225.084 182.847 232.653C173.723 244.995 167.963 259.611 165.928 274.212C164.553 284.083 167.355 294.102 169.312 303.897C171.797 316.337 181.866 328.122 179.886 340.632C179.304 344.309 176.729 347.837 173.542 350.279C165.969 356.081 154.615 356.348 145.627 360.298C138.276 363.528 124.479 371.43 124.479 371.43V371.43Z" stroke="black" stroke-width="0.719369" stroke-linejoin="round"/>
<path id="path42821" d="M286.901 409.074C286.901 409.074 300.473 396.432 306.197 389.125C310.848 383.188 317.467 370.933 317.467 370.933C317.467 370.933 322.932 369.663 325.073 370.855C327.086 371.976 328.043 376.564 328.043 376.564C328.043 376.564 321.424 388.818 316.773 394.755C311.05 402.062 297.478 414.704 297.478 414.704C297.478 414.704 292.012 415.975 289.871 414.782C287.858 413.662 286.901 409.074 286.901 409.074V409.074Z" fill="url(#paint11_linear)" stroke="black" stroke-width="0.257274" stroke-linecap="round" stroke-linejoin="round"/>
<path id="path42823" d="M296.496 415.439C296.496 415.439 310.446 402.443 316.33 394.932C321.111 388.829 327.914 376.233 327.914 376.233C327.914 376.233 333.533 374.927 335.734 376.152C337.803 377.304 338.786 382.02 338.786 382.02C338.786 382.02 331.983 394.617 327.202 400.72C321.318 408.231 307.367 421.226 307.367 421.226C307.367 421.226 301.749 422.532 299.548 421.306C297.479 420.154 296.496 415.439 296.496 415.439V415.439Z" fill="url(#paint12_linear)" stroke="black" stroke-width="0.264459" stroke-linecap="round" stroke-linejoin="round"/>
<path id="path42825" d="M303.744 423.995C303.744 423.995 318.832 409.941 325.195 401.817C330.366 395.217 337.724 381.594 337.724 381.594C337.724 381.594 343.8 380.181 346.181 381.507C348.418 382.753 349.482 387.853 349.482 387.853C349.482 387.853 342.124 401.476 336.953 408.076C330.59 416.2 315.502 430.254 315.502 430.254C315.502 430.254 309.426 431.666 307.045 430.341C304.808 429.095 303.744 423.995 303.744 423.995V423.995Z" fill="url(#paint13_linear)" stroke="black" stroke-width="0.286014" stroke-linecap="round" stroke-linejoin="round"/>
<path id="path42827" d="M154.58 410.124C154.58 410.124 141.008 397.481 135.284 390.174C130.634 384.237 124.015 371.983 124.015 371.983C124.015 371.983 118.549 370.713 116.408 371.905C114.395 373.025 113.438 377.613 113.438 377.613C113.438 377.613 120.057 389.867 124.708 395.804C130.432 403.112 144.004 415.754 144.004 415.754C144.004 415.754 149.469 417.024 151.611 415.832C153.623 414.711 154.58 410.124 154.58 410.124V410.124Z" fill="url(#paint14_linear)" stroke="black" stroke-width="0.257274" stroke-linecap="round" stroke-linejoin="round"/>
<path id="path42829" d="M144.986 416.488C144.986 416.488 131.035 403.493 125.152 395.982C120.371 389.879 113.567 377.282 113.567 377.282C113.567 377.282 107.949 375.976 105.748 377.202C103.679 378.354 102.696 383.07 102.696 383.07C102.696 383.07 109.499 395.666 114.28 401.769C120.164 409.28 134.114 422.276 134.114 422.276C134.114 422.276 139.733 423.581 141.934 422.356C144.003 421.204 144.986 416.488 144.986 416.488V416.488Z" fill="url(#paint15_linear)" stroke="black" stroke-width="0.264459" stroke-linecap="round" stroke-linejoin="round"/>
<path id="path42831" d="M137.737 425.045C137.737 425.045 122.65 410.99 116.286 402.867C111.116 396.266 103.758 382.643 103.758 382.643C103.758 382.643 97.6815 381.231 95.3012 382.556C93.0634 383.802 92 388.902 92 388.902C92 388.902 99.3582 402.526 104.528 409.126C110.892 417.249 125.98 431.304 125.98 431.304C125.98 431.304 132.056 432.716 134.436 431.39C136.674 430.145 137.737 425.044 137.737 425.044V425.045Z" fill="url(#paint16_linear)" stroke="black" stroke-width="0.286014" stroke-linecap="round" stroke-linejoin="round"/>
</g>
</g>
</g>
</g>
</g>
<defs>
<filter id="filter0_f" x="54.099" y="47.0853" width="335.802" height="425.829" filterUnits="userSpaceOnUse" color-interpolation-filters="sRGB">
<feFlood flood-opacity="0" result="BackgroundImageFix"/>
<feBlend mode="normal" in="SourceGraphic" in2="BackgroundImageFix" result="shape"/>
<feGaussianBlur stdDeviation="1.53385" result="effect1_foregroundBlur"/>
</filter>
<filter id="filter1_f" x="55.5458" y="41.5458" width="334.571" height="424.591" filterUnits="userSpaceOnUse" color-interpolation-filters="sRGB">
<feFlood flood-opacity="0" result="BackgroundImageFix"/>
<feBlend mode="normal" in="SourceGraphic" in2="BackgroundImageFix" result="shape"/>
<feGaussianBlur stdDeviation="1.22708" result="effect1_foregroundBlur"/>
</filter>
<radialGradient id="paint0_radial" cx="0" cy="0" r="1" gradientUnits="userSpaceOnUse" gradientTransform="translate(218.466 193.326) scale(125.533 141.458)">
<stop stop-color="#BA131A"/>
<stop offset="1" stop-color="#D71A20"/>
</radialGradient>
<linearGradient id="paint1_linear" x1="270.89" y1="251.444" x2="303.348" y2="251.444" gradientUnits="userSpaceOnUse">
<stop stop-color="#CF8A15"/>
<stop offset="0.557697" stop-color="#F7E84D"/>
<stop offset="1" stop-color="#CF8A15"/>
</linearGradient>
<radialGradient id="paint2_radial" cx="0" cy="0" r="1" gradientUnits="userSpaceOnUse" gradientTransform="translate(218.902 155.745) scale(98.2423 108.705)">
<stop stop-color="#D38D5F"/>
<stop offset="1" stop-color="#C87137"/>
</radialGradient>
<linearGradient id="paint3_linear" x1="179.152" y1="123.348" x2="217.453" y2="44.569" gradientUnits="userSpaceOnUse">
<stop stop-color="#170003"/>
<stop offset="1"/>
</linearGradient>
<linearGradient id="paint4_linear" x1="196.886" y1="55.2873" x2="285.481" y2="154.025" gradientUnits="userSpaceOnUse">
<stop/>
<stop offset="1" stop-color="#170003"/>
</linearGradient>
<linearGradient id="paint5_linear" x1="163.604" y1="253.522" x2="131.146" y2="253.522" gradientUnits="userSpaceOnUse">
<stop stop-color="#CF8A15"/>
<stop offset="0.557697" stop-color="#F7E84D"/>
<stop offset="1" stop-color="#CF8A15"/>
</linearGradient>
<linearGradient id="paint6_linear" x1="188.557" y1="234.756" x2="182.783" y2="356.582" gradientUnits="userSpaceOnUse">
<stop stop-color="#D38D5F"/>
<stop offset="1" stop-color="#C87137"/>
</linearGradient>
<linearGradient id="paint7_linear" x1="240.237" y1="173.884" x2="245.517" y2="406.913" gradientUnits="userSpaceOnUse">
<stop stop-color="#D38D5F"/>
<stop offset="1" stop-color="#C87137"/>
</linearGradient>
<linearGradient id="paint8_linear" x1="234.787" y1="254.567" x2="256.172" y2="254.567" gradientUnits="userSpaceOnUse">
<stop stop-color="#CF8A15"/>
<stop offset="0.557697" stop-color="#F7E84D"/>
<stop offset="1" stop-color="#CF8A15"/>
</linearGradient>
<linearGradient id="paint9_linear" x1="200.693" y1="263.526" x2="217.893" y2="263.526" gradientUnits="userSpaceOnUse">
<stop stop-color="#CF8A15"/>
<stop offset="0.557697" stop-color="#F7E84D"/>
<stop offset="1" stop-color="#CF8A15"/>
</linearGradient>
<linearGradient id="paint10_linear" x1="170.188" y1="250.895" x2="191.575" y2="250.895" gradientUnits="userSpaceOnUse">
<stop stop-color="#CF8A15"/>
<stop offset="0.557697" stop-color="#F7E84D"/>
<stop offset="1" stop-color="#CF8A15"/>
</linearGradient>
<linearGradient id="paint11_linear" x1="308.894" y1="386.14" x2="318.114" y2="394.365" gradientUnits="userSpaceOnUse">
<stop stop-color="#CF8A15"/>
<stop offset="0.557697" stop-color="#F7E84D"/>
<stop offset="1" stop-color="#CF8A15"/>
</linearGradient>
<linearGradient id="paint12_linear" x1="314.658" y1="394.648" x2="323.438" y2="402.444" gradientUnits="userSpaceOnUse">
<stop stop-color="#CF8A15"/>
<stop offset="0.557697" stop-color="#F7E84D"/>
<stop offset="1" stop-color="#CF8A15"/>
</linearGradient>
<linearGradient id="paint13_linear" x1="326.065" y1="399.616" x2="336.035" y2="409.445" gradientUnits="userSpaceOnUse">
<stop stop-color="#CF8A15"/>
<stop offset="0.557697" stop-color="#F7E84D"/>
<stop offset="1" stop-color="#CF8A15"/>
</linearGradient>
<linearGradient id="paint14_linear" x1="125.751" y1="398.066" x2="137.616" y2="392.817" gradientUnits="userSpaceOnUse">
<stop stop-color="#CF8A15"/>
<stop offset="0.557697" stop-color="#F7E84D"/>
<stop offset="1" stop-color="#CF8A15"/>
</linearGradient>
<linearGradient id="paint15_linear" x1="119.769" y1="403.452" x2="125.497" y2="398.531" gradientUnits="userSpaceOnUse">
<stop stop-color="#CF8A15"/>
<stop offset="0.557697" stop-color="#F7E84D"/>
<stop offset="1" stop-color="#CF8A15"/>
</linearGradient>
<linearGradient id="paint16_linear" x1="106.61" y1="410.647" x2="115.717" y2="403.774" gradientUnits="userSpaceOnUse">
<stop stop-color="#CF8A15"/>
<stop offset="0.557697" stop-color="#F7E84D"/>
<stop offset="1" stop-color="#CF8A15"/>
</linearGradient>
</defs>
</svg>
